<svg id="visual" viewBox="0 0 960 540" width="960" height="540" xmlns="http://www.w3.org/2000/svg" xmlns:xlink="http://www.w3.org/1999/xlink" version="1.1"><rect x="0" y="0" width="960" height="540" fill="#ffffff"></rect><defs><linearGradient id="grad1_0" x1="43.8%" y1="0%" x2="100%" y2="100%"><stop offset="14.444444444444446%" stop-color="#ffffff" stop-opacity="1"></stop><stop offset="85.55555555555554%" stop-color="#ffffff" stop-opacity="1"></stop></linearGradient></defs><defs><linearGradient id="grad2_0" x1="0%" y1="0%" x2="56.3%" y2="100%"><stop offset="14.444444444444446%" stop-color="#ffffff" stop-opacity="1"></stop><stop offset="85.55555555555554%" stop-color="#ffffff" stop-opacity="1"></stop></linearGradient></defs><g transform="translate(960, 0)"><path d="M0 351C-14.4 347.2 -28.9 343.4 -40.3 331.6C-51.6 319.8 -60 300 -73.9 300C-87.9 300.1 -107.6 320 -122.7 323.5C-137.8 327.1 -148.5 314.3 -159.9 304.6C-171.3 294.9 -183.5 288.4 -191.4 277.3C-199.4 266.3 -203.1 250.7 -216.8 244.8C-230.6 238.9 -254.3 242.7 -262.7 232.8C-271.1 222.8 -264.1 199.1 -262.5 181.2C-260.9 163.4 -264.7 151.4 -262.1 137.6C-259.5 123.7 -250.4 108 -255.3 96.8C-260.1 85.6 -278.9 79.1 -279.6 68.9C-280.4 58.8 -263.1 45.1 -272 33C-280.9 20.9 -315.9 10.5 -351 0L0 0Z" fill="#0abc5b"></path></g><g transform="translate(0, 540)"><path d="M0 -351C15.5 -357.5 31 -364 42.3 -348.4C53.6 -332.9 60.8 -295.3 67 -271.9C73.2 -248.4 78.5 -239 93.3 -245.9C108.1 -252.8 132.4 -276 145.5 -277.1C158.5 -278.3 160.2 -257.3 175 -253.5C189.7 -249.6 217.6 -262.8 220.8 -249.3C224.1 -235.7 202.7 -195.4 198.4 -175.7C194 -156.1 206.8 -157 232.9 -160.8C259.1 -164.5 298.6 -171.1 307.3 -161.3C315.9 -151.4 293.5 -125.2 279.6 -106C265.6 -86.8 260.2 -74.7 260.2 -64.1C260.3 -53.6 265.9 -44.7 281.9 -34.2C298 -23.8 324.5 -11.9 351 0L0 0Z" fill="#0abc5b"></path></g></svg>