<svg id="visual" viewBox="0 0 1920 1080" width="1920" height="1080" xmlns="http://www.w3.org/2000/svg" xmlns:xlink="http://www.w3.org/1999/xlink" version="1.1"><path d="M0 700L22.8 716.2C45.7 732.3 91.3 764.7 137 775.3C182.7 786 228.3 775 274 747.8C319.7 720.7 365.3 677.3 411.2 666.5C457 655.7 503 677.3 548.8 706.5C594.7 735.7 640.3 772.3 686 790.8C731.7 809.3 777.3 809.7 823 789.5C868.7 769.3 914.3 728.7 960 714.3C1005.7 700 1051.3 712 1097 729.7C1142.7 747.3 1188.3 770.7 1234 784.7C1279.7 798.7 1325.3 803.3 1371.2 793.5C1417 783.7 1463 759.3 1508.8 760C1554.7 760.7 1600.3 786.3 1646 771.5C1691.7 756.7 1737.3 701.3 1783 666.3C1828.7 631.3 1874.3 616.7 1897.2 609.3L1920 602L1920 1081L1897.2 1081C1874.3 1081 1828.7 1081 1783 1081C1737.3 1081 1691.7 1081 1646 1081C1600.3 1081 1554.7 1081 1508.8 1081C1463 1081 1417 1081 1371.2 1081C1325.3 1081 1279.7 1081 1234 1081C1188.3 1081 1142.7 1081 1097 1081C1051.3 1081 1005.7 1081 960 1081C914.3 1081 868.7 1081 823 1081C777.3 1081 731.7 1081 686 1081C640.3 1081 594.7 1081 548.8 1081C503 1081 457 1081 411.2 1081C365.3 1081 319.7 1081 274 1081C228.3 1081 182.7 1081 137 1081C91.3 1081 45.7 1081 22.8 1081L0 1081Z" fill="#19361d"></path><path d="M0 692L22.8 718.8C45.7 745.7 91.3 799.3 137 808C182.7 816.7 228.3 780.3 274 779C319.7 777.7 365.3 811.3 411.2 828.5C457 845.7 503 846.3 548.8 828.2C594.7 810 640.3 773 686 772.5C731.7 772 777.3 808 823 816.7C868.7 825.3 914.3 806.7 960 793.7C1005.7 780.7 1051.3 773.3 1097 779C1142.7 784.7 1188.3 803.3 1234 809.5C1279.7 815.7 1325.3 809.3 1371.2 785.3C1417 761.3 1463 719.7 1508.8 718.7C1554.7 717.7 1600.3 757.3 1646 782.2C1691.7 807 1737.3 817 1783 816C1828.7 815 1874.3 803 1897.2 797L1920 791L1920 1081L1897.2 1081C1874.3 1081 1828.7 1081 1783 1081C1737.3 1081 1691.7 1081 1646 1081C1600.3 1081 1554.7 1081 1508.8 1081C1463 1081 1417 1081 1371.2 1081C1325.3 1081 1279.7 1081 1234 1081C1188.3 1081 1142.7 1081 1097 1081C1051.3 1081 1005.7 1081 960 1081C914.3 1081 868.7 1081 823 1081C777.3 1081 731.7 1081 686 1081C640.3 1081 594.7 1081 548.8 1081C503 1081 457 1081 411.2 1081C365.3 1081 319.7 1081 274 1081C228.3 1081 182.7 1081 137 1081C91.3 1081 45.7 1081 22.8 1081L0 1081Z" fill="#18491f"></path><path d="M0 887L22.8 885C45.7 883 91.3 879 137 865.5C182.7 852 228.3 829 274 820.8C319.7 812.7 365.3 819.3 411.2 824.2C457 829 503 832 548.8 844.5C594.7 857 640.3 879 686 883.7C731.7 888.3 777.3 875.7 823 863.5C868.7 851.3 914.3 839.7 960 828.5C1005.7 817.3 1051.3 806.7 1097 811.3C1142.7 816 1188.3 836 1234 830.8C1279.7 825.7 1325.3 795.3 1371.2 798.5C1417 801.7 1463 838.3 1508.8 850.7C1554.7 863 1600.3 851 1646 842C1691.7 833 1737.3 827 1783 827C1828.7 827 1874.3 833 1897.2 836L1920 839L1920 1081L1897.2 1081C1874.3 1081 1828.7 1081 1783 1081C1737.3 1081 1691.7 1081 1646 1081C1600.3 1081 1554.7 1081 1508.8 1081C1463 1081 1417 1081 1371.2 1081C1325.3 1081 1279.7 1081 1234 1081C1188.3 1081 1142.7 1081 1097 1081C1051.3 1081 1005.7 1081 960 1081C914.3 1081 868.7 1081 823 1081C777.3 1081 731.7 1081 686 1081C640.3 1081 594.7 1081 548.8 1081C503 1081 457 1081 411.2 1081C365.3 1081 319.7 1081 274 1081C228.3 1081 182.7 1081 137 1081C91.3 1081 45.7 1081 22.8 1081L0 1081Z" fill="#165c1f"></path><path d="M0 865L22.8 874.8C45.7 884.7 91.3 904.3 137 913C182.7 921.7 228.3 919.3 274 907.2C319.7 895 365.3 873 411.2 867.2C457 861.3 503 871.7 548.8 879.3C594.7 887 640.3 892 686 902C731.7 912 777.3 927 823 924.5C868.7 922 914.3 902 960 895.5C1005.7 889 1051.3 896 1097 904.8C1142.7 913.7 1188.3 924.3 1234 920C1279.7 915.7 1325.3 896.3 1371.2 890.5C1417 884.7 1463 892.3 1508.8 888.5C1554.7 884.7 1600.3 869.3 1646 865.7C1691.7 862 1737.3 870 1783 885.2C1828.7 900.3 1874.3 922.7 1897.2 933.8L1920 945L1920 1081L1897.2 1081C1874.3 1081 1828.7 1081 1783 1081C1737.3 1081 1691.7 1081 1646 1081C1600.3 1081 1554.7 1081 1508.8 1081C1463 1081 1417 1081 1371.2 1081C1325.3 1081 1279.7 1081 1234 1081C1188.3 1081 1142.7 1081 1097 1081C1051.3 1081 1005.7 1081 960 1081C914.3 1081 868.7 1081 823 1081C777.3 1081 731.7 1081 686 1081C640.3 1081 594.7 1081 548.8 1081C503 1081 457 1081 411.2 1081C365.3 1081 319.7 1081 274 1081C228.3 1081 182.7 1081 137 1081C91.3 1081 45.7 1081 22.8 1081L0 1081Z" fill="#13701d"></path><path d="M0 920L22.8 927.3C45.7 934.7 91.3 949.3 137 951.7C182.7 954 228.3 944 274 947C319.7 950 365.3 966 411.2 966C457 966 503 950 548.8 940.8C594.7 931.7 640.3 929.3 686 933.7C731.7 938 777.3 949 823 956.3C868.7 963.7 914.3 967.3 960 967.8C1005.7 968.3 1051.3 965.7 1097 960.2C1142.7 954.7 1188.3 946.3 1234 941.2C1279.7 936 1325.3 934 1371.2 931.8C1417 929.7 1463 927.3 1508.8 926.8C1554.7 926.3 1600.3 927.7 1646 931.8C1691.7 936 1737.3 943 1783 944.5C1828.7 946 1874.3 942 1897.2 940L1920 938L1920 1081L1897.2 1081C1874.3 1081 1828.7 1081 1783 1081C1737.3 1081 1691.7 1081 1646 1081C1600.3 1081 1554.7 1081 1508.8 1081C1463 1081 1417 1081 1371.2 1081C1325.3 1081 1279.7 1081 1234 1081C1188.3 1081 1142.7 1081 1097 1081C1051.3 1081 1005.7 1081 960 1081C914.3 1081 868.7 1081 823 1081C777.3 1081 731.7 1081 686 1081C640.3 1081 594.7 1081 548.8 1081C503 1081 457 1081 411.2 1081C365.3 1081 319.7 1081 274 1081C228.3 1081 182.7 1081 137 1081C91.3 1081 45.7 1081 22.8 1081L0 1081Z" fill="#0f8416"></path></svg>