<svg id="visual" viewBox="0 0 900 600" width="900" height="600" xmlns="http://www.w3.org/2000/svg" xmlns:xlink="http://www.w3.org/1999/xlink" version="1.1"><g transform="translate(453.9599916387067 258.9058621214223)"><path d="M94.4 -142C135.8 -139.6 192.2 -141.6 208.6 -118.6C225 -95.7 201.5 -47.8 196 -3.2C190.5 41.5 203.1 83 193.1 117.1C183.1 151.1 150.5 177.8 114.6 207C78.7 236.3 39.3 268.1 7.2 255.7C-25 243.3 -50 186.6 -84.8 156.7C-119.6 126.8 -164.1 123.6 -190.6 102C-217.1 80.3 -225.6 40.2 -221.1 2.6C-216.6 -35 -199.2 -70 -178.9 -102.3C-158.6 -134.7 -135.3 -164.3 -105 -173.2C-74.7 -182 -37.3 -170 -5.4 -160.6C26.5 -151.2 53 -144.5 94.4 -142" fill="#25d06e"></path></g></svg>